<svg width="1134" height="340" xmlns="http://www.w3.org/2000/svg">
 <g id="Layer_1">
  <title>Layer 1</title>
  <g stroke="null">
   <title fill="#030033" stroke="null">Spotify</title>
   <path stroke="null" d="m32,137.1388c0,66.4597 53.839,121.36119 119.01252,121.36119s119.01252,-54.90149 119.01252,-121.36119s-53.839,-120.6388 -119.01252,-120.6388s-119.01252,54.1791 -119.01252,120.6388zm162.93381,56.34627c-27.62791,-17.33731 -63.0483,-21.67164 -104.13596,-12.2806c-9.91771,1.44478 -11.33453,-13.00298 -2.83363,-14.44776c45.3381,-10.83582 83.59213,-5.7791 114.76207,13.72537c7.79249,5.05672 0,17.33731 -7.79249,13.00298zm12.04293,-32.50746c-31.87835,-20.22686 -80.7585,-26.00597 -118.30411,-14.44776c-12.04293,3.61194 -16.29338,-15.17015 -4.95886,-18.0597c43.21288,-13.00298 96.34347,-6.50149 133.18068,16.61492c9.91771,6.50149 0,22.39403 -9.91771,15.89254zm-123.97138,-51.28955c-12.04293,4.33433 -19.83542,-16.61492 -6.37567,-21.67164c41.79606,-13.00298 112.63685,-10.83582 156.55814,15.89254c12.04293,6.50149 0.70841,26.72836 -12.04293,19.50448c-38.25402,-23.11642 -102.01073,-25.28358 -138.13953,-13.72537zm268.48658,65.73731c-12.04293,0 -23.37746,-4.33433 -33.29517,-14.44776c-0.70841,0 -0.70841,0.72239 -0.70841,0.72239l-11.33453,13.72537c-0.70841,0.72239 -0.70841,1.44478 0,2.16716c12.75134,11.55821 28.33631,17.33731 45.3381,17.33731c24.08587,0 38.96243,-13.72537 38.96243,-33.95224c0,-17.33731 -10.62612,-26.72836 -35.42039,-33.22985c-20.54383,-5.05672 -24.08587,-8.66866 -24.08587,-15.89254s7.08408,-11.55821 16.29338,-11.55821s17.7102,3.61194 27.62791,10.83582c0,0 0.70841,0.72239 1.41682,0.72239s0.70841,-0.72239 0.70841,-0.72239l9.91771,-14.44776c0.70841,-0.72239 0.70841,-0.72239 0,-1.44478c-11.33453,-9.39104 -24.79428,-14.44776 -39.67084,-14.44776c-21.96064,0 -37.54562,13.72537 -37.54562,33.22985c0,20.94925 14.16816,27.45075 36.83721,33.22985c19.83542,4.33433 22.66905,8.66866 22.66905,15.89254c0,7.94627 -7.08408,12.2806 -17.7102,12.2806zm67.29875,-55.62388l0,-9.39104c0,-0.72239 -0.70841,-1.44478 -1.41682,-1.44478l-18.4186,0c-0.70841,0 -1.41682,0.72239 -1.41682,1.44478l0,106.19104c0,0.72239 0.70841,1.44478 1.41682,1.44478l18.4186,0c0.70841,0 1.41682,-0.72239 1.41682,-1.44478l0,-33.22985c7.08408,7.94627 14.87657,11.55821 25.50268,11.55821c19.12701,0 38.25402,-15.17015 38.25402,-44.06567s-19.12701,-43.34328 -38.25402,-43.34328c-10.62612,0 -18.4186,3.61194 -25.50268,12.2806zm21.25224,56.34627c-12.75134,0 -21.96064,-10.83582 -21.96064,-25.28358s9.2093,-24.56119 21.96064,-24.56119s21.25224,10.11343 21.25224,24.56119s-8.50089,25.28358 -21.25224,25.28358zm48.17173,-24.56119c0,24.56119 19.12701,43.34328 43.92129,43.34328s43.92129,-19.50448 43.92129,-44.06567s-18.4186,-43.34328 -43.21288,-43.34328s-44.6297,19.50448 -44.6297,44.06567zm21.25224,-0.72239c0,-14.44776 9.2093,-24.56119 22.66905,-24.56119s23.37746,10.83582 23.37746,25.28358s-9.2093,24.56119 -22.66905,24.56119s-23.37746,-10.83582 -23.37746,-25.28358zm99.1771,-41.89851l0,-20.94925c0,-0.72239 0,-1.44478 -0.70841,-1.44478l-18.4186,0c-0.70841,0 -1.41682,0.72239 -1.41682,1.44478l0,20.94925l-9.2093,0c-0.70841,0 -1.41682,0.72239 -1.41682,1.44478l0,15.89254c0,0.72239 0.70841,1.44478 1.41682,1.44478l9.2093,0l0,41.89851c0,16.61492 7.79249,25.28358 24.08587,25.28358c6.37567,0 12.75134,-1.44478 17.7102,-4.33433c0.70841,0 0.70841,-0.72239 0.70841,-1.44478l0,-15.17015c0,-0.72239 0,-1.44478 -0.70841,-1.44478l-1.41682,0c-3.54204,2.16716 -7.79249,2.88955 -11.33453,2.88955c-5.66726,0 -8.50089,-2.88955 -8.50089,-8.66866l0,-39.00895l21.25224,0c0.70841,0 1.41682,-0.72239 1.41682,-1.44478l0,-15.89254c0,-0.72239 -0.70841,-1.44478 -1.41682,-1.44478l-21.25224,0zm91.38461,-2.16716c0,-7.94627 2.83363,-10.83582 9.2093,-10.83582c3.54204,0 7.08408,0 10.62612,1.44478l0.70841,0s0.70841,-0.72239 0.70841,-1.44478l0,-15.17015c0,-0.72239 0,-1.44478 -0.70841,-1.44478c-3.54204,-1.44478 -8.50089,-2.16716 -15.58497,-2.16716c-17.00179,0 -25.50268,10.11343 -25.50268,28.17313l0,3.61194l-9.2093,0c-0.70841,0 -1.41682,0.72239 -1.41682,1.44478l0,15.89254c0,0.72239 0.70841,1.44478 1.41682,1.44478l9.2093,0l0,64.29253c0,0.72239 0.70841,1.44478 1.41682,1.44478l18.4186,0c0.70841,0 0.70841,-0.72239 0.70841,-1.44478l0,-64.29253l17.7102,0l26.21109,64.29253c-2.83363,6.50149 -5.66726,7.94627 -9.91771,7.94627c-3.54204,0 -7.08408,-0.72239 -10.62612,-2.88955l-0.70841,0l-0.70841,0.72239l-6.37567,13.72537c0,0.72239 0,2.16716 0.70841,2.16716c6.37567,3.61194 12.04293,5.05672 19.12701,5.05672c13.45975,0 21.25224,-6.50149 27.62791,-23.8388l31.87835,-83.79701l0,-1.44478c0,-0.72239 -0.70841,-0.72239 -1.41682,-0.72239l-19.12701,0c-0.70841,0 -0.70841,0.72239 -0.70841,1.44478l-19.83542,56.34627l-21.25224,-56.34627c0,-0.72239 -0.70841,-1.44478 -1.41682,-1.44478l-31.16995,0l0,-2.16716zm-58.79785,2.16716c-0.70841,0 -1.41682,0.72239 -1.41682,1.44478l0,81.62985c0,0.72239 0.70841,1.44478 1.41682,1.44478l18.4186,0c0.70841,0 0.70841,-0.72239 0.70841,-1.44478l0,-81.62985c0,-0.72239 0,-1.44478 -0.70841,-1.44478l-18.4186,0zm-4.25045,-23.8388c0,7.22388 6.37567,13.72537 13.45975,13.72537s12.75134,-6.50149 12.75134,-13.72537s-5.66726,-13.00298 -12.75134,-13.00298s-13.45975,5.7791 -13.45975,13.00298zm173.55993,49.84477c7.08408,0 13.45975,-5.7791 13.45975,-13.00298s-6.37567,-13.00298 -13.45975,-13.00298s-12.75134,5.7791 -12.75134,13.00298s5.66726,13.00298 12.75134,13.00298zm0,-24.56119c6.37567,0 12.04293,5.05672 12.04293,11.55821s-5.66726,11.55821 -12.04293,11.55821s-11.33453,-5.05672 -11.33453,-11.55821s4.95886,-11.55821 11.33453,-11.55821zm2.83363,13.00298c2.12522,-0.72239 3.54204,-2.16716 3.54204,-4.33433c0,-2.88955 -2.83363,-4.33433 -5.66726,-4.33433l-5.66726,0l0,13.72537l2.83363,0l0,-4.33433l2.83363,0l2.83363,4.33433l3.54204,0l-4.25045,-5.05672zm-2.12522,-6.50149c1.41682,0 2.83363,0.72239 2.83363,2.16716s-1.41682,2.16716 -2.83363,2.16716l-2.83363,0l0,-4.33433l2.83363,0z" fill="#030033"/>
  </g>
  <g stroke="null">
   <path stroke="null" d="m618,248c0,42.35 32.58879,77 72.41954,77c39.83075,0 72.41954,-34.65 72.41954,-77c0,-42.35 -32.58879,-77 -72.41954,-77c-39.83075,0 -72.41954,34.65 -72.41954,77z" fill="#1ECCB0"/>
   <path stroke="null" d="m680.46185,291.79375c-2.71573,-4.8125 -6.33671,-9.14375 -10.86293,-12.03125s-9.05244,-5.29375 -14.48391,-6.7375l0,0c-0.45262,0 -0.90524,0 -1.35787,0.48125c-0.45262,0.48125 -0.45262,0.9625 -0.45262,1.44375c0,0.48125 0,0.9625 0.45262,0.9625c5.88409,9.14375 14.93653,15.88125 24.89422,18.76875l0.45262,0c0.45262,0 0.45262,0 0.90524,0c0,0 0.45262,0 0.45262,-0.48125c0,0 0.45262,-0.48125 0.45262,-0.48125c0,0 0,-0.48125 0,-0.9625c0,-0.48125 0,-0.9625 -0.45262,-0.9625l0,0z" fill="#FFFFFF"/>
   <path stroke="null" d="m733.87126,235.00625c0,0 0,-0.48125 0,-0.48125c-2.26311,-8.6625 -6.78933,-16.3625 -13.12604,-22.1375c-6.33671,-5.775 -13.57866,-10.10625 -21.72586,-11.55l-0.45262,0c-0.45262,0 -0.90524,0 -1.35787,0.48125c-0.45262,0.48125 -0.45262,0.9625 -0.45262,1.44375l0,0.48125c4.0736,26.46875 1.35787,53.41875 -7.69458,78.44375c0,0.48125 -0.45262,0.48125 -0.45262,0.9625s-0.45262,0.48125 -0.90524,0.48125c-0.45262,0 -0.45262,0 -0.90524,0c0,0 -0.45262,0 -0.45262,-0.48125c0,0 -0.45262,-0.48125 -0.45262,-0.48125c0,0 0,-0.48125 0,-0.9625c0,0 -0.45262,-3.36875 -0.45262,-4.8125c-2.71573,-23.1 -9.05244,-45.2375 -19.46275,-65.93125c0,-0.48125 -0.45262,-0.48125 -0.45262,-0.48125c0,0 -0.45262,-0.48125 -0.45262,-0.48125s-0.45262,0 -0.90524,0c-0.45262,0 -0.45262,0 -0.90524,0l0,0c-6.33671,5.29375 -11.31555,12.03125 -14.48391,20.2125c0,0.48125 0,0.9625 0,1.44375c0,0.48125 0.45262,0.9625 0.90524,0.9625c9.95769,6.7375 18.10488,15.4 23.98897,26.46875c5.88409,10.5875 9.05244,23.1 9.50506,35.13125c0,0.48125 0,0.9625 0.45262,1.44375c0.45262,0.48125 0.90524,0.48125 0.90524,0.48125c0.90524,0 2.26311,0.48125 3.16835,0.48125c0.45262,0 0.90524,0 1.35787,-0.48125c0.45262,-0.48125 0.45262,-0.48125 0.45262,-0.9625c2.26311,-12.5125 7.24195,-24.54375 14.93653,-34.65c7.69458,-10.10625 17.19964,-17.80625 28.51519,-23.1c0.45262,0 0.45262,-0.48125 0.90524,-0.48125c0,-0.9625 0,-0.9625 0,-1.44375z" fill="#FFFFFF"/>
   <path stroke="null" d="m729.79766,271.58125c0,-0.48125 0,-0.9625 -0.45262,-1.44375c-0.45262,-0.48125 -0.90524,-0.48125 -1.35787,-0.48125l-0.45262,0c-14.03129,3.36875 -26.70471,11.55 -35.75715,23.1c-0.45262,0.48125 -0.45262,0.9625 -0.45262,1.44375c0,0.48125 0,0.9625 0.45262,1.44375c0.45262,0.48125 0.90524,0.48125 1.35787,0.48125l0,0c7.24195,-0.48125 14.48391,-2.8875 20.82062,-6.7375s11.76818,-9.625 15.38915,-16.3625c0.45262,-0.48125 0.45262,-0.9625 0.45262,-1.44375l0,0z" fill="#FFFFFF"/>
   <path stroke="null" d="m800.40672,276.875c-3.62098,0 -7.24195,-0.48125 -10.41031,-2.40625c-2.71573,-1.44375 -4.97884,-3.85 -6.78933,-6.7375c-1.35787,-3.36875 -2.26311,-6.7375 -2.26311,-10.10625l0,-1.44375l12.67342,0c0,2.40625 0.45262,4.33125 1.35787,6.25625c0.90524,0.9625 2.71573,1.925 4.0736,1.925s3.16835,0 4.52622,-0.9625c0.90524,-0.48125 1.35787,-1.925 1.81049,-2.8875c0.45262,-1.44375 0.45262,-2.8875 0.45262,-4.33125l0,-40.90625l14.03129,0l0,40.425c0.45262,5.775 -1.35787,11.55 -4.97884,15.88125c-1.81049,1.925 -4.52622,3.36875 -6.78933,4.33125c-2.71573,0.48125 -4.97884,0.9625 -7.69458,0.9625l0,0z"/>
   <path stroke="null" d="m833.90075,224.41875c-1.35787,0 -2.71573,-0.48125 -3.62098,-0.9625c-0.90524,-0.48125 -1.81049,-1.44375 -2.71573,-2.40625c-0.45262,-0.9625 -0.90524,-2.40625 -0.90524,-3.85c0,-1.44375 0.45262,-2.8875 0.90524,-3.85c0.45262,-0.9625 1.35787,-1.925 2.71573,-2.40625c1.35787,-0.48125 2.26311,-0.9625 3.62098,-0.9625c1.35787,0 2.71573,0.48125 3.62098,0.9625c0.90524,0.48125 1.81049,1.44375 2.71573,2.40625c0.45262,0.9625 0.90524,2.40625 0.90524,3.85c0,1.44375 -0.45262,2.40625 -0.90524,3.85c-0.45262,0.9625 -1.35787,1.925 -2.71573,2.40625c-0.90524,0.48125 -2.26311,0.9625 -3.62098,0.9625l0,0zm-6.33671,51.0125l0,-44.75625l12.67342,0l0,44.75625l-12.67342,0z"/>
   <path stroke="null" d="m868.30003,276.875c-4.0736,0 -8.1472,-0.9625 -11.31555,-2.8875c-3.16835,-1.925 -5.88409,-4.8125 -7.69458,-8.18125c-1.81049,-3.85 -2.71573,-8.18125 -2.71573,-12.5125c0,-4.33125 0.90524,-8.6625 2.71573,-12.5125c1.81049,-3.36875 4.0736,-6.25625 7.69458,-8.18125c3.62098,-1.925 7.69458,-2.8875 11.31555,-2.8875c4.0736,0 7.69458,0.9625 11.31555,2.8875c3.16835,1.925 5.88409,4.8125 7.24195,8.18125c1.81049,3.85 2.71573,8.18125 2.71573,12.5125c0,4.33125 -0.90524,8.6625 -2.71573,12.5125c-1.81049,3.36875 -4.52622,6.25625 -7.69458,8.18125c-3.16835,1.925 -7.24195,2.8875 -10.86293,2.8875zm0,-10.10625c1.81049,0 3.62098,-0.48125 4.97884,-1.44375c1.35787,-1.44375 2.71573,-2.8875 3.16835,-4.8125c0.90524,-2.40625 0.90524,-4.8125 0.90524,-7.21875c0,-2.40625 -0.45262,-4.8125 -0.90524,-6.7375c-0.45262,-1.925 -1.35787,-3.36875 -2.71573,-4.8125c-1.35787,-1.44375 -3.16835,-1.925 -4.97884,-1.925c-1.81049,0 -3.16835,0.48125 -4.52622,1.44375c-1.35787,0.9625 -2.26311,2.8875 -3.16835,4.33125c-0.90524,2.40625 -0.90524,4.8125 -0.90524,7.21875c0,2.40625 0.45262,4.8125 0.90524,7.21875c0.45262,1.925 1.35787,3.36875 3.16835,4.8125c0.45262,0.9625 2.26311,1.44375 4.0736,1.925l0,0z"/>
   <path stroke="null" d="m918.08847,276.875c-4.0736,0 -8.1472,-0.48125 -11.76818,-1.925c-3.62098,-1.44375 -6.78933,-3.36875 -9.05244,-6.25625c-2.26311,-2.8875 -3.62098,-6.7375 -3.62098,-10.10625l0,-0.9625l14.03129,0c0,1.44375 0.45262,3.36875 1.35787,4.33125c0.90524,1.44375 2.26311,1.925 4.0736,2.40625c1.81049,0.48125 3.62098,0.9625 5.43147,0.9625c2.26311,0 4.97884,-0.48125 6.78933,-1.44375c0.90524,-0.48125 1.35787,-0.9625 2.26311,-1.925c0.45262,-0.9625 0.90524,-1.925 0.45262,-2.8875c0,-0.9625 -0.45262,-2.40625 -0.90524,-2.8875c-0.90524,-0.9625 -1.81049,-1.925 -2.71573,-2.40625c-1.81049,-0.9625 -3.62098,-1.44375 -5.43147,-1.925l-10.41031,-2.8875c-2.71573,-0.48125 -4.97884,-1.925 -7.24195,-3.85c-1.81049,-1.44375 -3.62098,-3.36875 -4.52622,-5.29375c-0.90524,-2.40625 -1.35787,-4.8125 -1.35787,-7.21875c0,-3.85 0.90524,-7.21875 3.16835,-10.10625c2.26311,-2.8875 4.97884,-4.8125 8.1472,-6.25625c3.16835,-1.925 7.24195,-2.40625 10.86293,-1.925c4.0736,0 7.69458,0.48125 11.31555,1.925c3.16835,0.9625 5.88409,3.36875 7.69458,5.775c1.81049,2.8875 3.16835,6.25625 3.16835,9.625l-13.57866,0c0,-0.9625 -0.45262,-1.925 -0.90524,-2.8875c-0.45262,-0.9625 -0.90524,-1.44375 -1.81049,-1.925c-2.26311,-0.9625 -4.52622,-1.925 -6.78933,-1.44375c-1.81049,0 -4.0736,0.48125 -5.88409,1.44375c-0.90524,0.48125 -1.35787,0.9625 -1.81049,1.44375c-0.45262,0.48125 -0.45262,1.44375 -0.45262,2.40625c0,0.9625 0,1.925 0.45262,2.8875c0.45262,0.9625 1.35787,1.44375 2.26311,1.925c1.35787,0.48125 3.16835,1.44375 4.52622,1.44375l6.78933,1.925c3.62098,0.9625 6.78933,2.40625 9.95769,3.85c2.71573,1.44375 4.52622,2.8875 6.33671,5.29375c1.81049,2.40625 2.71573,5.775 2.26311,8.6625c0,3.85 -0.90524,7.21875 -2.71573,10.5875c-2.26311,2.8875 -4.97884,5.29375 -8.1472,6.7375c-3.62098,1.925 -8.1472,2.8875 -12.2208,2.8875l0,0z"/>
   <path stroke="null" d="m960.18232,276.875c-2.71573,0 -5.43147,-0.48125 -7.69458,-1.44375c-2.26311,-0.9625 -4.0736,-2.8875 -4.97884,-4.8125c-1.35787,-2.40625 -1.81049,-4.8125 -1.81049,-7.7c0,-2.40625 0.45262,-4.33125 1.35787,-6.25625c0.90524,-1.925 2.26311,-3.36875 4.0736,-4.8125c4.97884,-2.8875 10.41031,-3.85 15.38915,-3.36875l6.33671,0l0,-1.44375c0,-1.44375 0,-3.36875 -0.45262,-4.8125c-0.45262,-0.9625 -1.35787,-1.925 -2.26311,-2.8875c-1.35787,-0.48125 -2.71573,-0.9625 -3.62098,-0.9625c-1.81049,0 -3.62098,0.48125 -4.97884,1.44375c-0.45262,0.48125 -0.90524,0.9625 -1.35787,1.44375c-0.45262,0.48125 -0.45262,1.44375 -0.45262,1.925l-12.2208,0c0,-2.8875 0.90524,-5.29375 2.71573,-7.21875c1.81049,-2.40625 4.0736,-3.85 6.78933,-4.8125c3.16835,-0.9625 6.78933,-1.44375 10.41031,-1.44375c3.62098,0 7.24195,0.48125 10.41031,1.925c2.71573,0.9625 4.52622,3.36875 5.88409,5.775c1.35787,3.36875 2.26311,6.7375 1.81049,10.10625l0,27.9125l-11.31555,0l-0.45262,-5.29375c-1.35787,1.925 -2.71573,3.85 -4.97884,4.8125c-2.71573,0.9625 -5.88409,1.925 -8.59982,1.925l0,0zm4.52622,-9.625c1.35787,0 3.16835,-0.48125 4.52622,-0.9625c1.35787,-0.48125 2.26311,-1.925 2.71573,-2.8875c0.90524,-1.44375 0.90524,-3.36875 0.90524,-4.8125l0,-2.8875l-4.52622,0c-1.81049,0 -3.62098,0 -5.43147,0.48125c-1.35787,0.48125 -2.26311,0.9625 -3.16835,1.925c-0.45262,0.48125 -0.90524,0.9625 -0.90524,1.44375c0,0.48125 -0.45262,1.44375 -0.45262,1.925c0,0.9625 0,1.44375 0.45262,2.40625c0.45262,0.9625 0.90524,1.44375 1.35787,1.925c1.35787,0.9625 2.71573,1.44375 4.52622,1.44375l0,0z"/>
   <path stroke="null" d="m1004.99191,276.875c-2.71573,0 -5.43147,-0.48125 -7.69458,-1.44375c-2.26311,-0.9625 -4.0736,-2.8875 -4.97884,-4.8125c-1.35787,-2.40625 -1.81049,-4.8125 -1.81049,-7.7c0,-2.40625 0.45262,-4.33125 1.35787,-6.25625c0.90524,-1.925 2.26311,-3.36875 4.0736,-4.8125c4.97884,-2.8875 10.41031,-3.85 15.84177,-3.85l6.33671,0l0,-1.44375c0,-1.44375 0,-3.36875 -0.45262,-4.8125c-0.45262,-0.9625 -1.35787,-1.925 -2.26311,-2.40625c-1.35787,-0.48125 -2.71573,-0.9625 -3.62098,-0.9625c-1.81049,0 -3.62098,0.48125 -4.97884,1.44375c-0.45262,0.48125 -0.90524,0.9625 -1.35787,1.44375c-0.45262,0.48125 -0.45262,1.44375 -0.45262,1.925l-12.2208,0c0,-2.8875 0.90524,-5.29375 2.71573,-7.21875c1.81049,-2.40625 4.0736,-3.85 6.78933,-4.8125c3.16835,-0.9625 6.78933,-1.44375 10.41031,-1.44375c3.62098,0 7.24195,0.48125 10.41031,1.925c2.71573,0.9625 4.52622,3.36875 5.88409,5.775c1.35787,3.36875 2.26311,6.7375 1.81049,10.10625l0,27.9125l-11.76818,0l-0.45262,-5.29375c-1.35787,1.925 -2.71573,3.85 -4.97884,4.8125c-2.71573,0.9625 -5.88409,1.925 -8.59982,1.925l0,0zm4.52622,-9.625c1.35787,0 3.16835,-0.48125 4.52622,-0.9625c1.35787,-0.48125 2.26311,-1.925 2.71573,-2.8875c0.90524,-1.44375 0.90524,-3.36875 0.90524,-4.8125l0,-2.8875l-4.52622,0c-1.81049,0 -3.62098,0 -5.43147,0.48125c-1.35787,0.48125 -2.26311,0.9625 -3.16835,1.925c-0.45262,0.48125 -0.90524,0.9625 -0.90524,1.44375s-0.45262,1.44375 -0.45262,1.925c0,0.9625 0,1.44375 0.45262,2.40625c0.45262,0.9625 0.90524,1.44375 1.35787,1.925c1.35787,0.9625 2.71573,1.44375 4.52622,1.44375l0,0z"/>
   <path stroke="null" d="m1046.63315,275.43125l-13.57866,-44.75625l13.57866,0l7.69458,29.8375l7.69458,-29.8375l12.2208,0l-13.57866,44.75625l-14.03129,0z"/>
   <path stroke="null" d="m1078.76932,275.43125l0,-44.75625l12.2208,0l0,6.25625c1.35787,-2.40625 3.16835,-4.33125 5.43147,-5.29375c2.26311,-1.44375 4.52622,-1.925 7.24195,-1.925c2.71573,0 5.43147,0.48125 8.1472,1.925c2.26311,1.44375 4.0736,3.36875 4.97884,5.775c1.35787,2.8875 1.81049,6.25625 1.81049,9.625l0,28.875l-12.67342,0l0,-25.025c0,-2.8875 -0.45262,-5.775 -1.81049,-8.18125c-0.45262,-0.9625 -1.35787,-1.44375 -2.26311,-1.925c-0.90524,-0.48125 -1.81049,-0.48125 -2.71573,-0.48125c-0.90524,0 -2.26311,0 -3.16835,0.48125c-0.90524,0.48125 -1.81049,0.9625 -2.71573,1.925c-1.35787,2.40625 -2.26311,5.29375 -1.81049,8.18125l0,24.54375l-12.67342,0z"/>
  </g>
  <text transform="matrix(1.86658 0 0 1.7624 -399.145 -146.709)" stroke="null" font-weight="bold" xml:space="preserve" text-anchor="start" font-family="'Azeret Mono'" font-size="71" id="svg_1" y="255.39556" x="488.45848" stroke-width="0" fill="#000000">X</text>
 </g>

</svg>